<svg width="16" height="16" viewBox="0 0 16 16" fill="none" xmlns="http://www.w3.org/2000/svg">
<g opacity="0.5">
<path d="M6.93359 2.6333C9.30835 2.6333 11.2333 4.55837 11.2334 6.93311C11.2334 7.94873 10.8824 8.88107 10.2939 9.6167L10.0137 9.96631L13.3574 13.3101C13.3638 13.3166 13.3672 13.325 13.3672 13.3335L13.3574 13.3569C13.3444 13.3698 13.3236 13.3697 13.3105 13.3569L9.9668 10.0132L9.61719 10.2935C8.88156 10.8819 7.94922 11.2329 6.93359 11.2329C4.55886 11.2328 2.63379 9.30786 2.63379 6.93311C2.63389 4.55844 4.55893 2.63341 6.93359 2.6333ZM6.93359 2.69971C4.59574 2.69981 2.7003 4.59525 2.7002 6.93311C2.7002 9.27105 4.59567 11.1664 6.93359 11.1665C9.2716 11.1665 11.167 9.27111 11.167 6.93311C11.1669 4.59519 9.27154 2.69971 6.93359 2.69971Z" fill="#09090B" stroke="#09090B"/>
</g>
</svg>
