<svg width="16" height="16" viewBox="0 0 16 16" fill="none" xmlns="http://www.w3.org/2000/svg">
<g opacity="0.5">
<path d="M6.93311 2.63333C9.30786 2.63333 11.2328 4.5584 11.2329 6.93314C11.2329 7.94876 10.8819 8.8811 10.2935 9.61673L10.0132 9.96634L13.3569 13.3101C13.3633 13.3166 13.3667 13.325 13.3667 13.3335L13.3569 13.357C13.3439 13.3698 13.3231 13.3697 13.3101 13.357L9.96631 10.0132L9.6167 10.2935C8.88107 10.8819 7.94873 11.2329 6.93311 11.2329C4.55837 11.2328 2.6333 9.30789 2.6333 6.93314C2.63341 4.55847 4.55844 2.63344 6.93311 2.63333ZM6.93311 2.69974C4.59525 2.69984 2.69981 4.59528 2.69971 6.93314C2.69971 9.27108 4.59519 11.1664 6.93311 11.1665C9.27111 11.1665 11.1665 9.27115 11.1665 6.93314C11.1664 4.59522 9.27105 2.69974 6.93311 2.69974Z" fill="#FAFAFA" stroke="#FAFAFA"/>
</g>
</svg>
